<mxfile host="app.diagrams.net" modified="2023-04-22T14:02:51.516Z" agent="Mozilla/5.0 (Macintosh; Intel Mac OS X 10_15_7) AppleWebKit/537.36 (KHTML, like Gecko) Chrome/112.0.0.0 Safari/537.36" etag="1jCaFXWmC3-ypc10_XMS" version="21.2.1" type="github">
  <diagram name="Page-1" id="edf60f1a-56cd-e834-aa8a-f176f3a09ee4">
    <mxGraphModel dx="1190" dy="1131" grid="1" gridSize="10" guides="1" tooltips="1" connect="1" arrows="1" fold="1" page="1" pageScale="1" pageWidth="1169" pageHeight="827" background="none" math="0" shadow="0">
      <root>
        <mxCell id="0" />
        <mxCell id="1" parent="0" />
        <mxCell id="60e70716793133e9-32" style="edgeStyle=orthogonalEdgeStyle;rounded=0;html=1;labelBackgroundColor=none;startSize=5;endArrow=classicThin;endFill=1;endSize=5;jettySize=auto;orthogonalLoop=1;strokeWidth=1;fontFamily=Verdana;fontSize=8;strokeColor=#182E3E;fontColor=default;" parent="1" source="60e70716793133e9-4" target="60e70716793133e9-5" edge="1">
          <mxGeometry relative="1" as="geometry" />
        </mxCell>
        <mxCell id="60e70716793133e9-4" value="Affichage de toutes les recettes" style="rounded=0;whiteSpace=wrap;html=1;shadow=1;labelBackgroundColor=none;strokeWidth=1;fontFamily=Verdana;fontSize=8;align=center;fillColor=#F08E81;strokeColor=#FFFFFF;fontColor=#1A1A1A;" parent="1" vertex="1">
          <mxGeometry x="560" y="120" width="120" height="60" as="geometry" />
        </mxCell>
        <mxCell id="60e70716793133e9-5" value="Recherche dans le champ principal supérieure à 2 caractères ?" style="rhombus;whiteSpace=wrap;html=1;rounded=0;shadow=1;labelBackgroundColor=none;strokeWidth=1;fontFamily=Verdana;fontSize=8;align=center;fillColor=#F08E81;strokeColor=#FFFFFF;fontColor=#1A1A1A;" parent="1" vertex="1">
          <mxGeometry x="527.5" y="200" width="185" height="100" as="geometry" />
        </mxCell>
        <mxCell id="7xQFMuA-qO5Dn9zBe7eW-2" value="" style="edgeStyle=orthogonalEdgeStyle;rounded=0;orthogonalLoop=1;jettySize=auto;html=1;labelBackgroundColor=none;strokeColor=#182E3E;fontColor=default;" edge="1" parent="1" source="7xQFMuA-qO5Dn9zBe7eW-1" target="60e70716793133e9-4">
          <mxGeometry relative="1" as="geometry" />
        </mxCell>
        <mxCell id="7xQFMuA-qO5Dn9zBe7eW-1" value="Début" style="ellipse;whiteSpace=wrap;html=1;labelBackgroundColor=none;fillColor=#F08E81;strokeColor=#FFFFFF;fontColor=#1A1A1A;" vertex="1" parent="1">
          <mxGeometry x="560" y="10" width="120" height="80" as="geometry" />
        </mxCell>
        <mxCell id="7xQFMuA-qO5Dn9zBe7eW-3" value="" style="endArrow=classic;html=1;rounded=0;strokeColor=#182E3E;fontColor=#1A1A1A;exitX=0.5;exitY=1;exitDx=0;exitDy=0;" edge="1" parent="1" source="60e70716793133e9-5">
          <mxGeometry relative="1" as="geometry">
            <mxPoint x="712.5" y="249.5" as="sourcePoint" />
            <mxPoint x="620" y="350" as="targetPoint" />
            <Array as="points" />
          </mxGeometry>
        </mxCell>
        <mxCell id="7xQFMuA-qO5Dn9zBe7eW-4" value="OUI" style="edgeLabel;resizable=0;html=1;align=center;verticalAlign=middle;strokeColor=#FFFFFF;fontColor=#1A1A1A;fillColor=#F08E81;" connectable="0" vertex="1" parent="7xQFMuA-qO5Dn9zBe7eW-3">
          <mxGeometry relative="1" as="geometry" />
        </mxCell>
        <mxCell id="7xQFMuA-qO5Dn9zBe7eW-5" value="" style="endArrow=classic;html=1;rounded=0;strokeColor=#182E3E;fontColor=#1A1A1A;exitX=0;exitY=0.5;exitDx=0;exitDy=0;entryX=-0.025;entryY=0.633;entryDx=0;entryDy=0;entryPerimeter=0;" edge="1" parent="1" source="60e70716793133e9-5" target="60e70716793133e9-4">
          <mxGeometry relative="1" as="geometry">
            <mxPoint x="430" y="250" as="sourcePoint" />
            <mxPoint x="440" y="250" as="targetPoint" />
            <Array as="points">
              <mxPoint x="480" y="250" />
              <mxPoint x="480" y="158" />
            </Array>
          </mxGeometry>
        </mxCell>
        <mxCell id="7xQFMuA-qO5Dn9zBe7eW-6" value="NON" style="edgeLabel;resizable=0;html=1;align=center;verticalAlign=middle;strokeColor=#FFFFFF;fontColor=#1A1A1A;fillColor=#F08E81;direction=south;" connectable="0" vertex="1" parent="7xQFMuA-qO5Dn9zBe7eW-5">
          <mxGeometry relative="1" as="geometry">
            <mxPoint x="20" y="11" as="offset" />
          </mxGeometry>
        </mxCell>
        <mxCell id="7xQFMuA-qO5Dn9zBe7eW-7" value="l&#39;entrée existe dans les noms des recettes ?" style="rhombus;whiteSpace=wrap;html=1;strokeColor=#FFFFFF;fontColor=#1A1A1A;fillColor=#F08E81;autosize=1;" vertex="1" parent="1">
          <mxGeometry x="520" y="350" width="230" height="120" as="geometry" />
        </mxCell>
        <mxCell id="7xQFMuA-qO5Dn9zBe7eW-8" value="l&#39;entrée existe dans les ingrédients des recettes ?" style="rhombus;whiteSpace=wrap;html=1;strokeColor=#FFFFFF;fontColor=#1A1A1A;fillColor=#F08E81;" vertex="1" parent="1">
          <mxGeometry x="520" y="480" width="200" height="80" as="geometry" />
        </mxCell>
        <mxCell id="7xQFMuA-qO5Dn9zBe7eW-9" value="l&#39;entrée existe dans la description des recettes ?" style="rhombus;whiteSpace=wrap;html=1;strokeColor=#FFFFFF;fontColor=#1A1A1A;fillColor=#F08E81;" vertex="1" parent="1">
          <mxGeometry x="520" y="600" width="200" height="80" as="geometry" />
        </mxCell>
      </root>
    </mxGraphModel>
  </diagram>
</mxfile>
